<?xml version="1.0" encoding="UTF-8"?>
<svg id="Capa_1" data-name="Capa 1" xmlns="http://www.w3.org/2000/svg" viewBox="0 0 1080 500">
  <defs>
    <style>
      .cls-1 {
        fill: #25262e;
        stroke-width: 0px;
      }
    </style>
  </defs>
  <path class="cls-1" d="M344.67,325.59h-67.2v-23.77h43.43v-73.08c0-16.85-17.99-30.56-40.09-30.56h-32.56c-22.11,0-40.09,13.71-40.09,30.56v96.85h-23.77v-96.85c0-29.96,28.65-54.33,63.87-54.33h32.56c35.22,0,63.87,24.37,63.87,54.33v96.85Z"/>
  <g>
    <path class="cls-1" d="M419.32,276.49v-9.7h32.41c10.63,0,16.83-6.92,16.83-17.03s-6.19-16.83-16.83-16.83h-42.12v65.04h-10.01v-75.05h52.13c16.83,0,26.63,10.32,26.63,26.53s-9.81,27.05-26.63,27.05h-32.41Z"/>
    <path class="cls-1" d="M566.33,297.97l-19.82-21.27h-32.93v-9.29h33.55c10.94,0,16.52-6.09,16.52-17.65s-6.09-16.83-16.52-16.83h-43.26v65.04h-10.01v-75.05h53.27c16.62,0,26.43,10.43,26.43,26.84,0,12.49-5.68,21.47-15.8,25.19l22.81,23.02h-14.25Z"/>
    <path class="cls-1" d="M625.48,297.97c-20.65,0-35.82-16.52-35.82-38.3s15.18-36.75,35.82-36.75h17.96c21.27,0,36.03,14.97,36.03,36.75s-15.07,38.3-36.03,38.3h-17.96ZM643.44,287.95c15.18,0,26.01-11.87,26.01-27.77s-10.74-27.25-26.01-27.25h-17.96c-14.87,0-25.81,11.15-25.81,27.25s10.84,27.77,25.81,27.77h17.96Z"/>
    <path class="cls-1" d="M716.11,276.49v-9.7h32.41c10.63,0,16.83-6.92,16.83-17.03s-6.19-16.83-16.83-16.83h-42.12v65.04h-10.01v-75.05h52.13c16.83,0,26.63,10.32,26.63,26.53s-9.81,27.05-26.63,27.05h-32.41Z"/>
    <path class="cls-1" d="M810.36,276.49v-9.7h32.41c10.63,0,16.83-6.92,16.83-17.03s-6.19-16.83-16.83-16.83h-42.12v65.04h-10.01v-75.05h52.13c16.83,0,26.63,10.32,26.63,26.53s-9.81,27.05-26.63,27.05h-32.41Z"/>
    <path class="cls-1" d="M885.61,297.97v-75.05h10.01v75.05h-10.01Z"/>
  </g>
</svg>